<svg height="107" viewBox="0 0 595 107" width="595" xmlns="http://www.w3.org/2000/svg"><g fill="none" fill-rule="evenodd" transform="translate(.086207 .31)"><g transform="translate(0 4.19)"><path d="m26.9861821 1.35699568c-2.8270734 17.33580822 5.4943354 30.63976362 24.9642309 39.91186712 19.0372342 9.0660566 27.4270197 23.4619389 25.1693606 43.1876468l-.1704286 1.3531938h-26.0500552c.8517226-6.5072972-.1087941-11.1116418-2.8815542-13.8130337-10.2819926-10.017347-20.4174131-10.2408783-30.7827167-21.3459447-13.25267705-14.1985141-18.7855588-30.0792708-16.59864523-47.64226972l.22764301-1.6514596z" fill="#ff4c4c" fill-rule="nonzero"/><path d="m39.8628712 10.077497c3.992509-.16735738 7.2319303.0830952 9.7089118.8102757 1.9348335.5680192 3.3699782 1.3987009 4.1316788 2.6888974.7610826 1.2891496.7942026 2.9441933.3556336 4.9082737-.5617901 2.5159115-1.9102515 5.4671374-3.9890299 8.8741267-3.0945049 5.2609187-6.058615 9.236721-8.9473197 11.9329945-13.3127396 12.4259107-28.1781844 17.7414694-44.6227458 15.8549499v-20.8274683c6.30390581.6263635 12.1273975-.2877593 17.475436-2.7083319 6.0874645-2.7552436 11.577118-7.4832147 16.4193347-14.2481039.8618914-1.1595404 5.4739691-7.1181884 9.4681005-7.2856138z" fill="#2e53c2" stroke="#ff4c4c" stroke-width="5" transform="matrix(0 1 -1 0 58.193666 7.356996)"/><path d="m78.7216431 0v31.5501507h-31.5501498v-31.5501507z" fill="#ffb500" fill-rule="nonzero"/></g><path d="m370.507059 21.56c16.28 0 27.94 12.43 27.94 29.92 0 17.71-11.11 30.14-27.28 30.14-11.825754 0-17.552111-6.9554513-19.500977-10.5233266l-.079023-.1466734h-.66v34.54h-8.69v-82.5h8.36v9.02h.66c1.43-2.09 6.82-10.45 19.25-10.45zm-234.067059 0c9.9 0 19.47 5.72 20.79 16.06l-7.59 2.2c-.77-6.71-6.27-10.78-13.75-10.78-7.15 0-11.77 3.52-11.77 8.47 0 14.52 34.32 2.42 34.32 26.07 0 10.78-8.91 18.04-22.22 18.04-12.87 0-20.9-7.04-22.22-17.27l7.92-1.98c.66 7.7 6.05 11.66 14.74 11.66 8.58 0 13.31-4.18 13.31-10.01 0-16.06-34.21-3.85-34.21-26.51 0-9.68 8.69-15.95 20.68-15.95zm99.148824 0c17.27 0 29.81 12.87 29.81 30.03s-12.76 30.03-29.92 30.03-29.81-12.65-29.81-30.03c0-17.27 12.87-30.03 29.92-30.03zm229.337058 0c17.0973 0 26.971263 11.85921 27.167033 28.746725l.002967.513275v3.19h-45.98c.11 12.76 7.59 19.91 19.47 19.91 7.908334 0 15.176516-4.4810606 17.181229-12.1822773l.088771-.3577227 8.47 1.98c-3.19 10.67-12.65 18.26-25.85 18.26-17.38 0-28.27-12.21-28.27-29.81 0-18.26 12.54-30.25 27.72-30.25zm55.239412 0c9.9 0 19.47 5.72 20.79 16.06l-7.59 2.2c-.77-6.71-6.27-10.78-13.75-10.78-7.15 0-11.77 3.52-11.77 8.47 0 14.52 34.32 2.42 34.32 26.07 0 10.78-8.91 18.04-22.22 18.04-12.87 0-20.9-7.04-22.22-17.27l7.92-1.98c.66 7.7 6.05 11.66 14.74 11.66 8.58 0 13.31-4.18 13.31-10.01 0-7.1823889-6.842264-8.7105596-14.406767-10.2322524l-.650012-.1305466-1.022468-.2061559c-.096526-.0196032-.193095-.0392714-.289696-.0590162l-.579883-.1194775-.580042-.1218604c-.289962-.0616171-.579762-.1243331-.869065-.1884556l-.577847-.1302118c-7.885498-1.8076867-15.23422-4.8196062-15.23422-15.3220236 0-9.68 8.69-15.95 20.68-15.95zm51.719412 0c9.9 0 19.47 5.72 20.79 16.06l-7.59 2.2c-.77-6.71-6.27-10.78-13.75-10.78-7.15 0-11.77 3.52-11.77 8.47 0 14.52 34.32 2.42 34.32 26.07 0 10.78-8.91 18.04-22.22 18.04-12.87 0-20.9-7.04-22.22-17.27l7.92-1.98c.66 7.7 6.05 11.66 14.74 11.66 8.58 0 13.31-4.18 13.31-10.01 0-16.06-34.21-3.85-34.21-26.51 0-9.68 8.69-15.95 20.68-15.95zm-388.895294-15.18v16.61h17.6v7.37h-17.6v33.44c0 6.16 2.53 8.8 8.58 8.8h8.25v7.59h-8.14c-10.45 0-17.38-4.73-17.38-16.28v-33.55h-10.78v-7.37h11.33v-16.61zm119.938823 15.18v8.69h-5.17c-10.45 0-14.74 8.47-14.74 19.36v30.58h-8.69v-57.2h8.58v9.57h.66c1.65-4.84 7.26-11 15.62-11zm23.999412 1.43v57.2h-8.69v-49.83h-10.78v-7.37zm109.048824-1.43v8.69h-5.17c-10.45 0-14.74 8.47-14.74 19.36v30.58h-8.69v-57.2h8.58v9.57h.66c1.65-4.84 7.26-11 15.62-11zm-220.683623 24.6064469c-3.331001 12.4314654 2.671406 23.6057575 14.465361 26.7659381 11.900206 3.1886506 22.714059-3.5936184 26.01659-15.9188319 3.274061-12.2189617-2.671406-23.6057575-14.571612-26.7944082-11.900206-3.1886506-22.664748 3.8345921-25.910339 15.947302zm136.393238 1.9342942c-2.444966 13.8660932 4.807846 23.4105323 15.424073 25.2824596 11.049543 1.9483326 20.651286-5.629466 22.924341-18.5205995 2.330358-13.2161201-4.629391-23.155672-15.462276-25.0658019-11.699516-2.0629404-20.804096 6.4960969-22.886138 18.3039418zm96.142829-3.1365578-.058049.3664855 36.709774 3.2116891c.487503-11.8827287-7.232572-18.2999972-16.656574-19.1244905-9.207358-.8055395-18.245995 5.0932575-19.995151 15.5463159zm-125.301268-44.9641833c3.74 0 6.38 2.75 6.38 6.27 0 3.63-2.64 6.38-6.38 6.38-3.63 0-6.27-2.75-6.27-6.38 0-3.52 2.64-6.27 6.27-6.27z" fill="#fff" fill-rule="nonzero"/></g></svg>